<svg width="65" height="66" viewBox="0 0 65 66" fill="none" xmlns="http://www.w3.org/2000/svg">
<path fill-rule="evenodd" clip-rule="evenodd" d="M0 13.0841C0 5.90705 5.82029 0.0888672 13 0.0888672H52C59.1796 0.0888672 65 5.90705 65 13.0841V52.07C65 59.2469 59.1796 65.0652 52 65.0652H13C5.82029 65.0652 0 59.2469 0 52.07V13.0841ZM13 6.5865C9.41015 6.5865 6.5 9.49559 6.5 13.0841V52.07C6.5 55.6586 9.41015 58.5676 13 58.5676H32.5V35.8259H29.25C27.455 35.8259 26 34.3714 26 32.5771C26 30.7827 27.455 29.3282 29.25 29.3282H32.5V24.455C32.5 18.175 37.5928 13.0841 43.875 13.0841H45.825C47.62 13.0841 49.075 14.5387 49.075 16.333C49.075 18.1272 47.62 19.5818 45.825 19.5818H43.875C41.1827 19.5818 39 21.7636 39 24.455V29.3282H45.825C47.62 29.3282 49.075 30.7827 49.075 32.5771C49.075 34.3714 47.62 35.8259 45.825 35.8259H39V58.5676H52C55.59 58.5676 58.5 55.6586 58.5 52.07V13.0841C58.5 9.49559 55.59 6.5865 52 6.5865H13Z" fill="black"/>
</svg>
