<svg width="65" height="66" viewBox="0 0 65 66" fill="none" xmlns="http://www.w3.org/2000/svg">
<path fill-rule="evenodd" clip-rule="evenodd" d="M19.0764 0.487592C13.7858 0.726218 9.20014 2.01924 5.49735 5.70506C1.78163 9.41024 0.504209 14.0123 0.264902 19.246C0.116143 22.5127 -0.753721 47.1912 1.7687 53.6632C3.46972 58.0294 6.81993 61.3865 11.2277 63.0924C13.2844 63.8921 15.6323 64.4335 19.0764 64.5915C47.874 65.8943 58.549 65.185 63.0506 53.6632C63.8493 51.6123 64.3991 49.2673 64.5511 45.833C65.8673 16.972 64.3377 10.7162 59.3187 5.70506C55.3378 1.73545 50.6552 -0.966742 19.0764 0.487592ZM19.3415 58.7871C16.1885 58.6452 14.4778 58.12 13.3362 57.6782C10.4645 56.5625 8.30755 54.4152 7.19833 51.5613C5.27741 46.6436 5.91451 23.2871 6.0859 19.5078C6.25406 15.8058 7.00431 12.4225 9.61728 9.8105C12.8512 6.58578 17.0293 5.00538 45.4777 6.28883C49.1902 6.4565 52.5825 7.20494 55.202 9.8105C58.4359 13.0352 60.0398 17.2439 58.7334 45.5729C58.5911 48.717 58.064 50.423 57.6209 51.5613C54.6943 59.0587 47.9613 60.0995 19.3415 58.7871ZM45.7914 15.3246C45.7914 17.4594 47.528 19.1953 49.6721 19.1953C51.8161 19.1953 53.556 17.4594 53.556 15.3246C53.556 13.1899 51.8161 11.4555 49.6721 11.4555C47.528 11.4555 45.7914 13.1899 45.7914 15.3246ZM15.8037 32.5379C15.8037 41.6832 23.2384 49.0977 32.4096 49.0977C41.5809 49.0977 49.0156 41.6832 49.0156 32.5379C49.0156 23.3927 41.5809 15.9829 32.4096 15.9829C23.2384 15.9829 15.8037 23.3927 15.8037 32.5379ZM21.6311 32.5379C21.6311 26.6045 26.4561 21.7905 32.4096 21.7905C38.3632 21.7905 43.1881 26.6045 43.1881 32.5379C43.1881 38.4746 38.3632 43.2901 32.4096 43.2901C26.4561 43.2901 21.6311 38.4746 21.6311 32.5379Z" fill="black"/>
</svg>
