<svg width="65" height="66" viewBox="0 0 65 66" fill="none" xmlns="http://www.w3.org/2000/svg">
<path fill-rule="evenodd" clip-rule="evenodd" d="M13 0.0888672C5.82029 0.0888672 0 5.90705 0 13.0841V52.07C0 59.2469 5.82029 65.0652 13 65.0652H52C59.1796 65.0652 65 59.2469 65 52.07V13.0841C65 5.90705 59.1796 0.0888672 52 0.0888672H13ZM6.5 13.0841C6.5 9.49559 9.41015 6.5865 13 6.5865H52C55.59 6.5865 58.5 9.49559 58.5 13.0841V52.07C58.5 55.6586 55.59 58.5676 52 58.5676H13C9.41015 58.5676 6.5 55.6586 6.5 52.07V13.0841ZM22.75 29.3282C22.75 27.5339 21.2949 26.0794 19.5 26.0794C17.7051 26.0794 16.25 27.5339 16.25 29.3282V48.8211C16.25 50.6155 17.7051 52.07 19.5 52.07C21.2949 52.07 22.75 50.6155 22.75 48.8211V29.3282ZM24.375 17.9574C24.375 20.6488 22.1924 22.8306 19.5 22.8306C16.8076 22.8306 14.625 20.6488 14.625 17.9574C14.625 15.266 16.8076 13.0841 19.5 13.0841C22.1924 13.0841 24.375 15.266 24.375 17.9574ZM32.5 26.0794C33.6034 26.0794 34.5784 26.6291 35.166 27.4696C36.8319 26.5674 38.6867 26.0794 40.625 26.0794C47.6431 26.0794 52 32.336 52 37.6822V37.7069V37.7313V37.756V37.7807V37.8054V37.8304V37.8551V37.8801V37.9051V37.9301V37.9555V37.9805V38.0058V38.0312V38.0565V38.0819V38.1072V38.1329V38.1585V38.1839V38.2099V38.2355V38.2612V38.2872V38.3128V38.3388V38.3648V38.3911V38.4171V38.4434V38.4694V38.4958V38.5221V38.5484V38.575V38.6013V38.628V38.6543V38.6809V38.7076V38.7345V38.7612V38.7878V38.8148V38.8418V38.8684V38.8954V38.9226V38.9496V38.9766V39.0039V39.0312V39.0581V39.0854V39.1127V39.14V39.1676V39.1949V39.2225V39.2498V39.2774V39.305V39.3326V39.3603V39.3879V39.4155V39.4434V39.471V39.499V39.5269V39.5549V39.5825V39.6107V39.6387V39.6666V39.6946V39.7228V39.7508V39.779V39.807V39.8352V39.8635V39.8918V39.92V39.9483V39.9766V40.0052V40.0334V40.062V40.0903V40.1189V40.1471V40.1757V40.2043V40.2329V40.2615V40.2901V40.3187V40.3473V40.3758V40.4044V40.4333V40.4619V40.4908V40.5194V40.5484V40.5769V40.6059V40.6348V40.6637V40.6923V40.7212V40.7501V40.779V40.8079V40.8369V40.8658V40.8947V40.9239V40.9528V40.9817V41.0107V41.0399V41.0688V41.0977V41.127V41.1559V41.1851V41.214V41.243V41.2722V41.3014V41.3303V41.3596V41.3885V41.4177V41.447V41.4759V41.5051V41.534V41.5633V41.5925V41.6214V41.6507V41.6799V41.7088V41.7381V41.7673V41.7966V41.8255V41.8547V41.8839V41.9129V41.9421V41.9713V42.0003V42.0295V42.0584V42.0876V42.1166V42.1458V42.175V42.204V42.2332V42.2621V42.291V42.3203V42.3492V42.3784V42.4073V42.4362V42.4652V42.4944V42.5233V42.5522V42.5811V42.6101V42.639V42.6679V42.6968V42.7257V42.7546V42.7835V42.8121V42.841V42.87V42.8986V42.9275V42.9561V42.985V43.0136V43.0425V43.0711V43.0997V43.1282V43.1568V43.1854V43.214V43.2426V43.2712V43.2998V43.328V43.3566V43.3849V43.4135V43.4418V43.47V43.4983V43.5265V43.5548V43.5831V43.6113V43.6396V43.6679V43.6958V43.7241V43.752V43.78V43.8082V43.8362V43.8641V43.8917V43.9197V43.9476V43.9755V44.0032V44.0308V44.0587V44.0863V44.1139V44.1415V44.1692V44.1965V44.2241V44.2514V44.279V44.3063V44.3336V44.3608V44.3881V44.4154V44.4424V44.4697V44.4966V44.5236V44.5506V44.5775V44.6045V44.6315V44.6581V44.6851V44.7117V44.7384V44.765V44.7916V44.8183V44.8446V44.8712V44.8975V44.9239V44.9502V44.9765V45.0025V45.0288V45.0548V45.0808V45.1068V45.1328V45.1588V45.1844V45.2101V45.2361V45.2617V45.2871V45.3127V45.3384V45.3638V45.3891V45.4144V45.4398V45.4648V45.4901V45.5151V45.5402V45.5652V45.5902V45.6149V45.6399V45.6646V45.6893V45.7137V45.7383V45.7627V45.7871V45.8114V45.8358V45.8602V45.8842V45.9083V45.9323V45.9563V45.9801V46.0041V46.0278V46.0515V46.0749V46.0986V46.122V46.1454V46.1688V46.1922V46.2153V46.2383V46.2614V46.2845V46.3072V46.33V46.3527V46.3754V46.3982V46.4206V46.443V46.4654V46.4878V46.5099V46.532V46.5541V46.5762V46.598V46.6197V46.6415V46.6633V46.6851V46.7065V46.7279V46.7491V46.7705V46.7916V46.8127V46.8335V46.8546V46.8754V46.8962V46.9167V46.9375V46.958V46.9784V46.9986V47.0187V47.0388V47.059V47.0791V47.0989V47.1188V47.1383V47.1581V47.1776V47.1967V47.2162V47.2354V47.2546V47.2737V47.2926V47.3114V47.3303V47.3488V47.3673V47.3858V47.4043V47.4225V47.4407V47.4589V47.4768V47.4947V47.5125V47.5301V47.5479V47.5652V47.5827V47.5999V47.6171V47.6344V47.6512V47.6681V47.685V47.7016V47.7182V47.7347V47.751V47.7672V47.7835V47.7994V47.8153V47.8312V47.8468V47.8624V47.878V47.8933V47.9086V47.9238V47.9388V47.9537V47.9687V47.9833V47.9979V48.0125V48.0268V48.0411V48.0554V48.0694V48.0833V48.097V48.1106V48.1243V48.1379V48.1512V48.1642V48.1776V48.1906V48.2032V48.2162V48.2289V48.2412V48.2536V48.2659V48.2779V48.29V48.302V48.3137V48.3254V48.3371V48.3484V48.3598V48.3709V48.3819V48.393V48.4037V48.4144V48.4248V48.4352V48.4456V48.4557V48.4657V48.4755V48.4852V48.495V48.5044V48.5138V48.5232V48.5323V48.5411V48.5499V48.5586V48.5674V48.5759V48.584V48.5921V48.6002V48.608V48.6158V48.6236V48.6311V48.6386V48.6457V48.6525V48.6597V48.6665V48.673V48.6795V48.686V48.6922V48.6983V48.7042V48.71V48.7159V48.7214V48.7266V48.7318V48.737V48.7419V48.7467V48.7513V48.7558V48.7604V48.7646V48.7685V48.7724V48.7763V48.7799V48.7835V48.7867V48.7929V48.7984V48.8036V48.8078V48.8117V48.8159V48.8198C52 50.6142 50.545 52.07 48.75 52.07C46.955 52.07 45.5 50.6155 45.5 48.8211V48.8172V48.8134V48.8098V48.8059V48.801V48.7958V48.79V48.7835V48.7799V48.7763V48.7724V48.7685V48.7646V48.7604V48.7558V48.7513V48.7467V48.7419V48.737V48.7318V48.7266V48.7214V48.7159V48.71V48.7042V48.6983V48.6922V48.686V48.6795V48.673V48.6665V48.6597V48.6525V48.6457V48.6386V48.6311V48.6236V48.6158V48.608V48.6002V48.5921V48.584V48.5759V48.5674V48.5586V48.5499V48.5411V48.5323V48.5232V48.5138V48.5044V48.495V48.4852V48.4755V48.4657V48.4557V48.4456V48.4352V48.4248V48.4144V48.4037V48.393V48.3819V48.3709V48.3598V48.3484V48.3371V48.3254V48.3137V48.302V48.29V48.2779V48.2659V48.2536V48.2412V48.2289V48.2162V48.2032V48.1906V48.1776V48.1642V48.1512V48.1379V48.1243V48.1106V48.097V48.0833V48.0694V48.0554V48.0411V48.0268V48.0125V47.9979V47.9833V47.9687V47.9537V47.9388V47.9238V47.9086V47.8933V47.878V47.8624V47.8468V47.8312V47.8153V47.7994V47.7835V47.7672V47.751V47.7347V47.7182V47.7016V47.685V47.6681V47.6512V47.6344V47.6171V47.5999V47.5827V47.5652V47.5479V47.5301V47.5125V47.4947V47.4768V47.4589V47.4407V47.4225V47.4043V47.3858V47.3673V47.3488V47.3303V47.3114V47.2926V47.2737V47.2546V47.2354V47.2162V47.1967V47.1776V47.1581V47.1383V47.1188V47.0989V47.0791V47.059V47.0388V47.0187V46.9986V46.9784V46.958V46.9375V46.9167V46.8962V46.8754V46.8546V46.8335V46.8127V46.7916V46.7705V46.7491V46.7279V46.7065V46.6851V46.6633V46.6415V46.6197V46.598V46.5762V46.5541V46.532V46.5099V46.4878V46.4654V46.443V46.4206V46.3982V46.3754V46.3527V46.33V46.3072V46.2845V46.2614V46.2383V46.2153V46.1922V46.1688V46.1454V46.122V46.0986V46.0749V46.0515V46.0278V46.0041V45.9801V45.9563V45.9323V45.9083V45.8842V45.8602V45.8358V45.8114V45.7871V45.7627V45.7383V45.7137V45.6893V45.6646V45.6399V45.6149V45.5902V45.5652V45.5402V45.5151V45.4901V45.4648V45.4398V45.4144V45.3891V45.3638V45.3384V45.3127V45.2871V45.2617V45.2361V45.2101V45.1844V45.1588V45.1328V45.1068V45.0808V45.0548V45.0288V45.0025V44.9765V44.9502V44.9239V44.8975V44.8712V44.8446V44.8183V44.7916V44.765V44.7384V44.7117V44.6851V44.6581V44.6315V44.6045V44.5775V44.5506V44.5236V44.4966V44.4697V44.4424V44.4154V44.3881V44.3608V44.3336V44.3063V44.279V44.2514V44.2241V44.1965V44.1692V44.1415V44.1139V44.0863V44.0587V44.0308V44.0032V43.9755V43.9476V43.9197V43.8917V43.8641V43.8362V43.8082V43.78V43.752V43.7241V43.6958V43.6679V43.6396V43.6113V43.5831V43.5548V43.5265V43.4983V43.47V43.4418V43.4135V43.3849V43.3566V43.328V43.2998V43.2712V43.2426V43.214V43.1854V43.1568V43.1282V43.0997V43.0711V43.0425V43.0136V42.985V42.9561V42.9275V42.8986V42.87V42.841V42.8121V42.7835V42.7546V42.7257V42.6968V42.6679V42.639V42.6101V42.5811V42.5522V42.5233V42.4944V42.4652V42.4362V42.4073V42.3784V42.3492V42.3203V42.291V42.2621V42.2332V42.204V42.175V42.1458V42.1166V42.0876V42.0584V42.0295V42.0003V41.9713V41.9421V41.9129V41.8839V41.8547V41.8255V41.7966V41.7673V41.7381V41.7088V41.6799V41.6507V41.6214V41.5925V41.5633V41.534V41.5051V41.4759V41.447V41.4177V41.3885V41.3596V41.3303V41.3014V41.2722V41.243V41.214V41.1851V41.1559V41.127V41.0977V41.0688V41.0399V41.0107V40.9817V40.9528V40.9239V40.8947V40.8658V40.8369V40.8079V40.779V40.7501V40.7212V40.6923V40.6637V40.6348V40.6059V40.5769V40.5484V40.5194V40.4908V40.4619V40.4333V40.4044V40.3758V40.3473V40.3187V40.2901V40.2615V40.2329V40.2043V40.1757V40.1471V40.1189V40.0903V40.062V40.0334V40.0052V39.9766V39.9483V39.92V39.8918V39.8635V39.8352V39.807V39.779V39.7508V39.7228V39.6946V39.6666V39.6387V39.6107V39.5825V39.5549V39.5269V39.499V39.471V39.4434V39.4155V39.3879V39.3603V39.3326V39.305V39.2774V39.2498V39.2225V39.1949V39.1676V39.14V39.1127V39.0854V39.0581V39.0312V39.0039V38.9766V38.9496V38.9226V38.8954V38.8684V38.8418V38.8148V38.7878V38.7612V38.7345V38.7076V38.6809V38.6543V38.628V38.6013V38.575V38.5484V38.5221V38.4958V38.4694V38.4434V38.4171V38.3911V38.3648V38.3388V38.3128V38.2872V38.2612V38.2355V38.2099V38.1839V38.1585V38.1329V38.1072V38.0819V38.0565V38.0312V38.0058V37.9805V37.9555V37.9301V37.9051V37.8801V37.8551V37.8304V37.8054V37.7807V37.756V37.7313V37.7069V37.6822C45.5 35.1865 43.3569 32.5771 40.625 32.5771C38.9217 32.5771 37.0415 33.5026 35.75 35.706V35.7148V35.7482V35.7817V35.8152V35.8489V35.8824V35.9162V35.95V35.9841V36.0179V36.0517V36.0858V36.1199V36.154V36.1881V36.2222V36.2567V36.2911V36.3252V36.3597V36.3941V36.4285V36.4633V36.4977V36.5325V36.5673V36.6017V36.6368V36.6715V36.7063V36.7411V36.7761V36.8112V36.846V36.8811V36.9162V36.9513V36.9867V37.0218V37.0572V37.0923V37.1277V37.1631V37.1985V37.2339V37.2693V37.3047V37.3405V37.3759V37.4116V37.447V37.4828V37.5185V37.5542V37.59V37.6257V37.6615V37.6975V37.7333V37.769V37.805V37.8411V37.8769V37.9129V37.949V37.985V38.0211V38.0572V38.0932V38.1293V38.1657V38.2017V38.2378V38.2742V38.3102V38.3466V38.383V38.4191V38.4555V38.4919V38.5282V38.5643V38.6007V38.6371V38.6735V38.7102V38.7466V38.7829V38.8193V38.8557V38.8921V38.9288V38.9652V39.0016V39.0383V39.0747V39.1114V39.1478V39.1845V39.2209V39.2573V39.294V39.3307V39.3671V39.4038V39.4402V39.4769V39.5133V39.55V39.5867V39.6231V39.6598V39.6962V39.7329V39.7696V39.806V39.8427V39.8791V39.9158V39.9522V39.9889V40.0253V40.062V40.0984V40.1351V40.1715V40.2082V40.2446V40.2813V40.3177V40.3541V40.3905V40.4272V40.4636V40.4999V40.5363V40.5727V40.6091V40.6455V40.6819V40.7183V40.7547V40.791V40.8274V40.8635V40.8999V40.9363V40.9723V41.0087V41.0448V41.0812V41.1172V41.1533V41.1893V41.2254V41.2618V41.2979V41.3336V41.3697V41.4057V41.4418V41.4775V41.5136V41.5493V41.5854V41.6211V41.6569V41.6926V41.7283V41.7641V41.7998V41.8355V41.8709V41.9067V41.9421V41.9778V42.0132V42.0487V42.0841V42.1195V42.1549V42.19V42.2254V42.2605V42.2959V42.331V42.3661V42.4012V42.4362V42.4713V42.5061V42.5412V42.5759V42.6107V42.6455V42.6802V42.715V42.7498V42.7845V42.819V42.8534V42.8878V42.9223V42.9567V42.9911V43.0256V43.0597V43.0938V43.1279V43.162V43.1961V43.2303V43.264V43.2978V43.3319V43.3657V43.3992V43.433V43.4668V43.5002V43.5337V43.5672V43.6006V43.6338V43.6672V43.7004V43.7335V43.7666V43.7998V43.8326V43.8657V43.8985V43.9314V43.9638V43.9967V44.0291V44.0616V44.0941V44.1266V44.1591V44.1913V44.2234V44.2556V44.2877V44.3196V44.3517V44.3836V44.4154V44.4469V44.4788V44.5103V44.5418V44.5733V44.6045V44.636V44.6672V44.6984V44.7293V44.7604V44.7913V44.8222V44.853V44.8836V44.9141V44.9447V44.9752V45.0057V45.0359V45.0662V45.0961V45.1263V45.1562V45.186V45.2159V45.2455V45.2754V45.305V45.3342V45.3638V45.393V45.4222V45.4511V45.4804V45.5093V45.5382V45.5668V45.5954V45.624V45.6526V45.6808V45.7091V45.7374V45.7656V45.7936V45.8215V45.8495V45.8771V45.9047V45.9323V45.9599V45.9872V46.0145V46.0415V46.0684V46.0954V46.1224V46.1493V46.176V46.2023V46.2289V46.2552V46.2815V46.3075V46.3335V46.3595V46.3855V46.4112V46.4368V46.4622V46.4875V46.5129V46.5382V46.5632V46.5882V46.6129V46.6379V46.6626V46.687V46.7114V46.7357V46.7601V46.7841V46.8079V46.8319V46.8556V46.8793V46.9027V46.9261V46.9495V46.9726V46.9956V47.0184V47.0414V47.0639V47.0866V47.109V47.1314V47.1535V47.1756V47.1974V47.2195V47.2412V47.2627V47.2841V47.3056V47.3267V47.3478V47.3686V47.3894V47.4102V47.431V47.4511V47.4716V47.4917V47.5119V47.5317V47.5515V47.5713V47.5908V47.61V47.6295V47.6486V47.6675V47.6863V47.7052V47.7237V47.7422V47.7604V47.7786V47.7968V47.8147V47.8322V47.8501V47.8673V47.8848V47.9021V47.9189V47.9358V47.9527V47.9693V47.9859V48.0021V48.0184V48.0343V48.0502V48.0661V48.0817V48.0973V48.1126V48.1275V48.1428V48.1574V48.1724V48.187V48.2013V48.2156V48.2295V48.2435V48.2575V48.2711V48.2844V48.2981V48.3111V48.3241V48.3371V48.3497V48.3624V48.3748V48.3871V48.3991V48.4111V48.4228V48.4345V48.4459V48.4573V48.4683V48.4794V48.4901V48.5008V48.5112V48.5216V48.5317V48.5417V48.5515V48.5612V48.5707V48.5801V48.5892V48.5979V48.607V48.6155V48.6239V48.6324V48.6405V48.6483V48.6561V48.6639V48.6714V48.6785V48.6857V48.6925V48.6993V48.7058V48.7123V48.7185V48.7247V48.7305V48.736V48.7416V48.7467V48.7519V48.7571V48.7617V48.7662V48.7708V48.775V48.7792V48.7831V48.7867V48.7903V48.7935V48.7997V48.8049V48.8095V48.8134V48.8176V48.8208C35.75 50.6151 34.295 52.07 32.5 52.07C30.705 52.07 29.25 50.6155 29.25 48.8211V48.8176V48.8134V48.8095V48.8049V48.7997V48.7935V48.7903V48.7867V48.7831V48.7792V48.775V48.7708V48.7662V48.7617V48.7571V48.7519V48.7467V48.7416V48.736V48.7305V48.7247V48.7185V48.7123V48.7058V48.6993V48.6925V48.6857V48.6785V48.6714V48.6639V48.6561V48.6483V48.6405V48.6324V48.6239V48.6155V48.607V48.5979V48.5892V48.5801V48.5707V48.5612V48.5515V48.5417V48.5317V48.5216V48.5112V48.5008V48.4901V48.4794V48.4683V48.4573V48.4459V48.4345V48.4228V48.4111V48.3991V48.3871V48.3748V48.3624V48.3497V48.3371V48.3241V48.3111V48.2981V48.2844V48.2711V48.2575V48.2435V48.2295V48.2156V48.2013V48.187V48.1724V48.1574V48.1428V48.1275V48.1126V48.0973V48.0817V48.0661V48.0502V48.0343V48.0184V48.0021V47.9859V47.9693V47.9527V47.9358V47.9189V47.9021V47.8848V47.8673V47.8501V47.8322V47.8147V47.7968V47.7786V47.7604V47.7422V47.7237V47.7052V47.6863V47.6675V47.6486V47.6295V47.61V47.5908V47.5713V47.5515V47.5317V47.5119V47.4917V47.4716V47.4511V47.431V47.4102V47.3894V47.3686V47.3478V47.3267V47.3056V47.2841V47.2627V47.2412V47.2195V47.1974V47.1756V47.1535V47.1314V47.109V47.0866V47.0639V47.0414V47.0184V46.9956V46.9726V46.9495V46.9261V46.9027V46.8793V46.8556V46.8319V46.8079V46.7841V46.7601V46.7357V46.7114V46.687V46.6626V46.6379V46.6129V46.5882V46.5632V46.5382V46.5129V46.4875V46.4622V46.4368V46.4112V46.3855V46.3595V46.3335V46.3075V46.2815V46.2552V46.2289V46.2023V46.176V46.1493V46.1224V46.0954V46.0684V46.0415V46.0145V45.9872V45.9599V45.9323V45.9047V45.8771V45.8495V45.8215V45.7936V45.7656V45.7374V45.7091V45.6808V45.6526V45.624V45.5954V45.5668V45.5382V45.5093V45.4804V45.4511V45.4222V45.393V45.3638V45.3342V45.305V45.2754V45.2455V45.2159V45.186V45.1562V45.1263V45.0961V45.0662V45.0359V45.0057V44.9752V44.9447V44.9141V44.8836V44.853V44.8222V44.7913V44.7604V44.7293V44.6984V44.6672V44.636V44.6045V44.5733V44.5418V44.5103V44.4788V44.4469V44.4154V44.3836V44.3517V44.3196V44.2877V44.2556V44.2234V44.1913V44.1591V44.1266V44.0941V44.0616V44.0291V43.9967V43.9638V43.9314V43.8985V43.8657V43.8326V43.7998V43.7666V43.7335V43.7004V43.6672V43.6338V43.6006V43.5672V43.5337V43.5002V43.4668V43.433V43.3992V43.3657V43.3319V43.2978V43.264V43.2303V43.1961V43.162V43.1279V43.0938V43.0597V43.0256V42.9911V42.9567V42.9223V42.8878V42.8534V42.819V42.7845V42.7498V42.715V42.6802V42.6455V42.6107V42.5759V42.5412V42.5061V42.4713V42.4362V42.4012V42.3661V42.331V42.2959V42.2605V42.2254V42.19V42.1549V42.1195V42.0841V42.0487V42.0132V41.9778V41.9421V41.9067V41.8709V41.8355V41.7998V41.7641V41.7283V41.6926V41.6569V41.6211V41.5854V41.5493V41.5136V41.4775V41.4418V41.4057V41.3697V41.3336V41.2979V41.2618V41.2254V41.1893V41.1533V41.1172V41.0812V41.0448V41.0087V40.9723V40.9363V40.8999V40.8635V40.8274V40.791V40.7547V40.7183V40.6819V40.6455V40.6091V40.5727V40.5363V40.4999V40.4636V40.4272V40.3905V40.3541V40.3177V40.2813V40.2446V40.2082V40.1715V40.1351V40.0984V40.062V40.0253V39.9889V39.9522V39.9158V39.8791V39.8427V39.806V39.7696V39.7329V39.6962V39.6598V39.6231V39.5867V39.55V39.5133V39.4769V39.4402V39.4038V39.3671V39.3307V39.294V39.2573V39.2209V39.1845V39.1478V39.1114V39.0747V39.0383V39.0016V38.9652V38.9288V38.8921V38.8557V38.8193V38.7829V38.7466V38.7102V38.6735V38.6371V38.6007V38.5643V38.5282V38.4919V38.4555V38.4191V38.383V38.3466V38.3102V38.2742V38.2378V38.2017V38.1657V38.1293V38.0932V38.0572V38.0211V37.985V37.949V37.9129V37.8769V37.8411V37.805V37.769V37.7333V37.6975V37.6615V37.6257V37.59V37.5542V37.5185V37.4828V37.447V37.4116V37.3759V37.3405V37.3047V37.2693V37.2339V37.1985V37.1631V37.1277V37.0923V37.0572V37.0218V36.9867V36.9513V36.9162V36.8811V36.846V36.8112V36.7761V36.7411V36.7063V36.6715V36.6368V36.6017V36.5673V36.5325V36.4977V36.4633V36.4285V36.3941V36.3597V36.3252V36.2911V36.2567V36.2222V36.1881V36.154V36.1199V36.0858V36.0517V36.0179V35.9841V35.95V35.9162V35.8824V35.8489V35.8152V35.7817V35.7482V35.7148V35.6813V35.6478V35.6144V35.5812V35.5481V35.515V35.4818V35.449V35.4159V35.3831V35.3502V35.3174V35.2849V35.2521V35.2196V35.1872V35.1547V35.1222V35.09V35.0579V35.0257V34.9935V34.9614V34.9295V34.8977V34.885V34.872V34.8593V34.8464V34.8337V34.8207V34.8077V34.7947V34.7817V34.7687V34.7557V34.7427V34.7297V34.7167V34.7034V34.6904V34.6771V34.6638V34.6508V34.6375V34.6241V34.6108V34.5975V34.5842V34.5709V34.5575V34.5442V34.5306V34.5173V34.5036V34.4903V34.4766V34.463V34.4497V34.436V34.4224V34.4087V34.3951V34.3814V34.3678V34.3542V34.3402V34.3265V34.3129V34.2989V34.2853V34.2713V34.2577V34.2437V34.2297V34.2161V34.2021V34.1881V34.1742V34.1602V34.1462V34.1323V34.1183V34.1043V34.09V34.0761V34.0621V34.0481V34.0338V34.0199V34.0056V33.9916V33.9773V33.963V33.949V33.9347V33.9204V33.9065V33.8922V33.8779V33.8636V33.8493V33.835V33.8207V33.8064V33.7921V33.7778V33.7635V33.7489V33.7346V33.7203V33.706V33.6914V33.6771V33.6628V33.6482V33.6339V33.6193V33.605V33.5904V33.5761V33.5614V33.5471V33.5325V33.5179V33.5036V33.489V33.4744V33.4601V33.4455V33.4308V33.4162V33.4019V33.3873V33.3727V33.3581V33.3434V33.3288V33.3145V33.2999V33.2853V33.2707V33.2561V33.2414V33.2268V33.2122V33.1976V33.183V33.1683V33.1537V33.1391V33.1245V33.1099V33.0952V33.0806V33.066V33.0514V33.0368V33.0221V33.0075V32.9929V32.9783V32.9637V32.949V32.9344V32.9198V32.9049V32.8902V32.8756V32.861V32.8464V32.8318V32.8171V32.8025V32.7879V32.7733V32.759V32.7444V32.7297V32.7151V32.7005V32.6859V32.6713V32.6567V32.642V32.6274V32.6131V32.5985V32.5839V32.5693V32.555V32.5403V32.5257V32.5111V32.4968V32.4822V32.4676V32.4533V32.4387V32.4244V32.4097V32.3954V32.3808V32.3665V32.3519V32.3376V32.3233V32.3087V32.2944V32.2801V32.2655V32.2512V32.2369V32.2226V32.2083V32.194V32.1797V32.1654V32.1511V32.1368V32.1225V32.1082V32.094V32.08V32.0657V32.0514V32.0371V32.0231V32.0088V31.9949V31.9806V31.9666V31.9523V31.9383V31.9244V31.9104V31.8961V31.8821V31.8682V31.8542V31.8402V31.8263V31.8123V31.7983V31.7847V31.7707V31.7567V31.7431V31.7291V31.7151V31.7015V31.6879V31.6739V31.6602V31.6466V31.6329V31.6193V31.6053V31.5917V31.5784V31.5647V31.5511V31.5374V31.5241V31.5105V31.4968V31.4835V31.4702V31.4565V31.4432V31.4299V31.4166V31.4033V31.3899V31.3766V31.3633V31.35V31.337V31.3237V31.3103V31.2973V31.2843V31.271V31.258V31.245V31.232V31.219V31.2061V31.1931V31.1801V31.1674V31.1544V31.1417V31.1287V31.1161V31.1034V31.0904V31.0777V31.0651V31.0527V31.04V31.0274V31.0147V31.0023V30.9897V30.9773V30.965V30.9526V30.9403V30.928V30.9156V30.9033V30.8909V30.8789V30.8666V30.8545V30.8425V30.8302V30.8181V30.8061V30.7941V30.7824V30.7704V30.7584V30.7467V30.7346V30.723V30.7113V30.6996V30.6879V30.6762V30.6645V30.6531V30.6414V30.63V30.6183V30.607V30.5956V30.5842V30.5729V30.5618V30.5504V30.5394V30.528V30.517V30.5059V30.4949V30.4838V30.4728V30.4617V30.451V30.44V30.4293V30.4185V30.4078V30.3971V30.3864V30.3757V30.3653V30.3545V30.3441V30.3337V30.3233V30.313V30.3026V30.2922V30.2821V30.2717V30.2616V30.2515V30.2415V30.2314V30.2213V30.2116V30.2015V30.1918V30.182V30.1723V30.1625V30.1528V30.143V30.1336V30.1239V30.1144V30.105V30.0956V30.0862V30.0771V30.0677V30.0586V30.0491V30.0401V30.031V30.0222V30.0131V30.0043V29.9952V29.9864V29.9777V29.9689V29.9601V29.9517V29.9429V29.9345V29.926V29.9176V29.9091V29.901V29.8926V29.8844V29.8763V29.8682V29.8601V29.8519V29.8441V29.836V29.8282V29.8204V29.8126V29.8048V29.7974V29.7896V29.7821V29.7746V29.7672V29.76V29.7525V29.7454V29.7379V29.7308V29.7236V29.7168V29.7096V29.7028V29.696V29.6892V29.6824V29.6755V29.669V29.6622V29.6557V29.6492V29.643V29.6365V29.6304V29.6239V29.6177V29.6119V29.6057V29.5995V29.5937V29.5878V29.582V29.5761V29.5706V29.5647V29.5592V29.5537V29.5482V29.543V29.5375V29.5323V29.5271V29.5219V29.5167V29.5118V29.5069V29.502V29.4972V29.4923V29.4874V29.4829V29.4783V29.4738V29.4692V29.465V29.4608V29.4562V29.4523V29.4481V29.4439V29.44V29.4361V29.4322V29.4283V29.4247V29.4212V29.4176V29.414V29.4104V29.4072V29.4036V29.4004V29.3942V29.3883V29.3825V29.377V29.3718V29.3669V29.3623V29.3578V29.3539V29.35V29.3451V29.3419V29.338V29.3347V29.3308C29.25 27.5365 30.705 26.0794 32.5 26.0794Z" fill="black"/>
</svg>
