<svg width="65" height="66" viewBox="0 0 65 66" fill="none" xmlns="http://www.w3.org/2000/svg">
<path fill-rule="evenodd" clip-rule="evenodd" d="M20.2238 7.87011C27.8805 6.6146 37.1194 6.6146 44.7761 7.87011C51.7329 9.01082 57.1234 14.6621 58.1545 20.7493C59.4028 28.1183 59.4028 37.0357 58.1545 44.4047C57.1234 50.492 51.7329 56.1432 44.7764 57.2841C37.1194 58.5395 27.8805 58.5395 20.2238 57.2841C13.2673 56.1432 7.87681 50.492 6.84541 44.4047C5.59691 37.0357 5.59703 28.1183 6.84544 20.7493C7.87669 14.662 13.2673 9.01082 20.2238 7.87011ZM45.6051 1.09811C37.3986 -0.247548 27.6016 -0.247548 19.395 1.09811C10.4882 2.55861 2.65956 9.91334 1.04677 19.4332C-0.34885 27.6713 -0.349004 37.4827 1.0468 45.7207C2.65971 55.2407 10.4882 62.5954 19.395 64.056C27.6016 65.4017 37.3986 65.4017 45.6051 64.056C54.5119 62.5954 62.3405 55.2407 63.9534 45.7207C65.3489 37.4827 65.3489 27.6713 63.9534 19.4333C62.3405 9.91331 54.5119 2.55861 45.6051 1.09811ZM28.2298 16.0523C27.323 15.3527 26.1575 15.2875 25.1968 15.8826C24.2361 16.4777 23.6363 17.6366 23.6363 18.8978V46.2562C23.6363 47.5174 24.2361 48.6764 25.1968 49.2715C26.1575 49.8665 27.323 49.8012 28.2298 49.1018L45.957 35.4226C46.779 34.7882 47.2727 33.7206 47.2727 32.577C47.2727 31.4334 46.779 30.3658 45.957 29.7314L28.2298 16.0523ZM38.9917 32.577L29.5454 39.8663V25.2878L38.9917 32.577Z" fill="black"/>
</svg>
